<svg width="39" height="39" viewBox="0 0 39 39" fill="none" xmlns="http://www.w3.org/2000/svg">
<path d="M19.5 0C15.6433 0 11.8731 1.14365 8.66639 3.28634C5.45963 5.42903 2.96027 8.47451 1.48436 12.0377C0.00844897 15.6008 -0.377716 19.5216 0.374696 23.3043C1.12711 27.0869 2.9843 30.5615 5.71143 33.2886C8.43855 36.0157 11.9131 37.8729 15.6957 38.6253C19.4784 39.3777 23.3992 38.9916 26.9623 37.5156C30.5255 36.0397 33.571 33.5404 35.7137 30.3336C37.8563 27.1269 39 23.3567 39 19.5C38.9941 14.3301 36.9378 9.37361 33.2821 5.71793C29.6264 2.06225 24.6699 0.00589836 19.5 0ZM19.5 37.1428C16.0106 37.1428 12.5995 36.1081 9.69816 34.1695C6.79681 32.2309 4.53548 29.4754 3.20013 26.2516C1.86479 23.0278 1.5154 19.4804 2.19615 16.058C2.87691 12.6357 4.55723 9.49201 7.02462 7.02461C9.49202 4.55722 12.6357 2.8769 16.0581 2.19615C19.4804 1.51539 23.0278 1.86478 26.2516 3.20012C29.4754 4.53547 32.2309 6.7968 34.1695 9.69815C36.1081 12.5995 37.1429 16.0106 37.1429 19.5C37.1375 24.1775 35.2769 28.6619 31.9694 31.9694C28.6619 35.2769 24.1775 37.1374 19.5 37.1428Z" fill="black"/>
<path d="M13.3547 6.99586C13.4645 6.94208 13.5625 6.86721 13.6434 6.77553C13.7242 6.68385 13.7861 6.57715 13.8257 6.46152C13.8653 6.34589 13.8817 6.2236 13.874 6.10163C13.8663 5.97965 13.8347 5.86039 13.7809 5.75064C13.7272 5.64089 13.6523 5.54281 13.5606 5.462C13.4689 5.38119 13.3622 5.31922 13.2466 5.27964C13.131 5.24007 13.0087 5.22365 12.8867 5.23133C12.7647 5.23902 12.6455 5.27065 12.5357 5.32443C9.44794 6.85114 6.93896 9.33861 5.38572 12.4131C5.27527 12.6331 5.25665 12.8879 5.33395 13.1215C5.41126 13.3552 5.57817 13.5486 5.79801 13.6593C5.92663 13.7256 6.06931 13.76 6.21401 13.7596C6.38851 13.762 6.56017 13.7152 6.7093 13.6245C6.85842 13.5339 6.97898 13.403 7.05715 13.247C8.42625 10.5379 10.6356 8.34487 13.3547 6.99586ZM25.4429 10.7324L26.3436 8.09714C26.4231 7.86392 26.4068 7.60865 26.2981 7.3875C26.1894 7.16634 25.9974 6.9974 25.7642 6.91786C25.5309 6.83831 25.2757 6.85467 25.0545 6.96333C24.8333 7.072 24.6644 7.26406 24.5849 7.49728L23.6786 10.1326L21.9143 9.53271L22.8132 6.89743C22.8565 6.78114 22.876 6.65735 22.8707 6.53338C22.8653 6.4094 22.8352 6.28776 22.782 6.17563C22.7289 6.0635 22.6538 5.96316 22.5612 5.88054C22.4686 5.79791 22.3604 5.73469 22.243 5.69459C22.1256 5.6545 22.0013 5.63834 21.8775 5.64709C21.7537 5.65584 21.633 5.6893 21.5223 5.74551C21.4117 5.80173 21.3135 5.87954 21.2334 5.97436C21.1534 6.06918 21.0931 6.17908 21.0563 6.29757L20.163 8.93286L17.5277 8.034L15.769 7.42857C15.6527 7.38526 15.5289 7.3657 15.405 7.37104C15.281 7.37639 15.1593 7.40652 15.0472 7.45967C14.9351 7.51282 14.8347 7.58791 14.7521 7.68049C14.6695 7.77307 14.6063 7.88128 14.5662 7.99871C14.5261 8.11615 14.5099 8.24042 14.5187 8.3642C14.5274 8.48798 14.5609 8.60876 14.6171 8.71938C14.6733 8.83001 14.7511 8.92825 14.8459 9.0083C14.9408 9.08834 15.0507 9.14857 15.1691 9.18543L16.0476 9.48628L10.6489 25.3091L9.77044 25.0101C9.65415 24.9668 9.53036 24.9473 9.40639 24.9526C9.28241 24.958 9.16077 24.9881 9.04864 25.0412C8.93651 25.0944 8.83617 25.1695 8.75354 25.2621C8.67092 25.3546 8.6077 25.4628 8.5676 25.5803C8.52751 25.6977 8.51135 25.822 8.5201 25.9458C8.52885 26.0696 8.56231 26.1903 8.61852 26.301C8.67473 26.4116 8.75255 26.5098 8.84737 26.5899C8.94219 26.6699 9.05209 26.7301 9.17058 26.767L13.5646 28.2676L12.6639 30.9028C12.6244 31.0183 12.6081 31.1404 12.6159 31.2622C12.6236 31.384 12.6553 31.5031 12.7091 31.6126C12.763 31.7221 12.8378 31.82 12.9295 31.9005C13.0211 31.9811 13.1278 32.0428 13.2433 32.0821C13.3396 32.1149 13.4406 32.1318 13.5423 32.1323C13.7364 32.1325 13.9257 32.0719 14.0836 31.959C14.2415 31.8461 14.3601 31.6865 14.4226 31.5027L15.3214 28.8674L17.0783 29.4673L16.1794 32.1026C16.0997 32.3355 16.1157 32.5907 16.224 32.8118C16.3323 33.033 16.524 33.202 16.757 33.2818C16.8539 33.3147 16.9555 33.3316 17.0579 33.332C17.2517 33.3318 17.4406 33.2711 17.5981 33.1582C17.7556 33.0453 17.8739 32.8859 17.9363 32.7024L18.837 30.0671C19.9704 30.4509 21.1972 30.4597 22.3359 30.092C23.4746 29.7244 24.4646 28.9999 25.1596 28.0259C25.8545 27.0518 26.2174 25.8798 26.1945 24.6835C26.1716 23.4871 25.7641 22.3299 25.0324 21.3831C26.1929 21.0859 27.2263 20.4219 27.9789 19.4899C28.7314 18.5579 29.1629 17.4078 29.209 16.2108C29.2552 15.0138 28.9135 13.8339 28.2349 12.8468C27.5563 11.8596 26.577 11.1181 25.4429 10.7324ZM24.1521 26C23.8337 26.9321 23.158 27.6995 22.2737 28.1335C21.3894 28.5674 20.369 28.6324 19.4369 28.314L12.4057 25.909L14.8052 18.8797L21.8363 21.2791C22.2986 21.4366 22.7254 21.6837 23.0921 22.0063C23.4588 22.329 23.7583 22.7207 23.9734 23.1592C24.1885 23.5977 24.315 24.0743 24.3457 24.5618C24.3764 25.0493 24.3106 25.538 24.1521 26ZM27.1514 17.212C26.833 18.1441 26.1573 18.9115 25.273 19.3455C24.3887 19.7794 23.3683 19.8444 22.4362 19.526L15.4143 17.121L17.8137 10.0917L24.8319 12.4893C25.2941 12.6464 25.7208 12.8931 26.0877 13.2153C26.4545 13.5375 26.7542 13.9288 26.9696 14.367C27.185 14.8051 27.312 15.2814 27.3432 15.7686C27.3744 16.2558 27.3092 16.7444 27.1514 17.2064V17.212Z" fill="black"/>
</svg>
