<svg width="24" height="39" viewBox="0 0 24 39" fill="none" xmlns="http://www.w3.org/2000/svg">
<path d="M23.786 22.6121C23.6528 22.4512 23.4694 22.3403 23.2656 22.2975C23.0618 22.2547 22.8497 22.2824 22.6635 22.3762L12.0001 27.741L1.33662 22.3762C1.15066 22.2825 0.938673 22.2546 0.735034 22.2973C0.531394 22.3399 0.348038 22.4505 0.214688 22.6112C0.081339 22.7718 0.00581327 22.973 0.000355037 23.1822C-0.0051032 23.3915 0.059826 23.5964 0.184617 23.7638L11.2616 38.6248C11.2727 38.6396 11.2912 38.6452 11.3041 38.6601C11.3657 38.7333 11.4386 38.796 11.5201 38.8458C11.5492 38.8686 11.5801 38.8891 11.6124 38.9071C11.7326 38.9682 11.8654 39 12.0001 39C12.1348 39 12.2676 38.9682 12.3878 38.9071C12.4201 38.8891 12.4509 38.8686 12.4801 38.8458C12.5615 38.796 12.6345 38.7333 12.6961 38.6601C12.709 38.6452 12.7275 38.6396 12.7385 38.6248L23.8155 23.7638C23.9402 23.5965 24.0051 23.3918 23.9997 23.1828C23.9943 22.9738 23.919 22.7727 23.786 22.6121ZM11.077 29.3534V35.2811L4.00803 25.8072L11.077 29.3534ZM12.9232 35.2811V29.3534L19.9921 25.8072L12.9232 35.2811Z" fill="black"/>
<path d="M0.0258462 19.5991C0.024942 19.6501 0.0286497 19.7011 0.0369233 19.7514C0.0461541 19.7811 0.0683086 19.8034 0.0793856 19.8313C0.0837902 19.8571 0.0899583 19.8825 0.0978468 19.9074C0.108924 19.9316 0.136616 19.9409 0.149539 19.9632C0.211378 20.0662 0.292959 20.1559 0.389541 20.2269C0.420926 20.2492 0.44308 20.2752 0.474465 20.2938C0.50585 20.3124 0.496619 20.3161 0.509542 20.3217L11.5865 25.8945H11.6124C11.733 25.9543 11.8656 25.9854 12.0001 25.9854C12.1345 25.9854 12.2672 25.9543 12.3878 25.8945H12.4136L23.4906 20.3217C23.5177 20.3029 23.5436 20.2824 23.5682 20.2604C23.6259 20.224 23.6792 20.181 23.7269 20.1322C23.7678 20.0902 23.8043 20.0442 23.8359 19.9947C23.8596 19.9669 23.8818 19.9378 23.9023 19.9074C23.9152 19.8796 23.9134 19.8517 23.9245 19.8257C23.9388 19.8017 23.9518 19.7769 23.9632 19.7514C23.966 19.718 23.966 19.6845 23.9632 19.6511C23.9763 19.587 23.9813 19.5214 23.978 19.456C23.976 19.4017 23.9692 19.3476 23.9577 19.2944C23.9425 19.2302 23.9202 19.1679 23.8912 19.1087C23.8833 19.0789 23.8735 19.0498 23.8617 19.0214L12.7847 0.445214C12.7718 0.424781 12.7478 0.41735 12.7349 0.398774C12.654 0.276157 12.5443 0.175573 12.4154 0.105993C12.2866 0.0364134 12.1426 0 11.9964 0C11.8502 0 11.7062 0.0364134 11.5773 0.105993C11.4485 0.175573 11.3388 0.276157 11.2579 0.398774C11.245 0.41735 11.221 0.424781 11.2081 0.445214L0.131078 19.0214C0.0574082 19.1532 0.0168482 19.3011 0.0129231 19.4523C0.0129231 19.469 0 19.482 0 19.4988C0.00651248 19.5327 0.0151449 19.5662 0.0258462 19.5991ZM11.077 23.5614L2.9871 19.4913L11.077 15.4213V23.5614ZM12.9232 15.4213L21.0131 19.4913L12.9232 23.5614V15.4213ZM12.9232 13.3445V4.26818L20.6531 17.2325L12.9232 13.3445ZM11.077 13.3445L3.34525 17.2343L11.077 4.26818V13.3445Z" fill="black"/>
</svg>
